# xmcd
#
# Track frame offsets:
#	150
#	10752
#	25905
#	47618
#	57618
#	72594
#	95522
#	107452
#	124875
#	139311
#	151032
#	167263
#	183940
#	205844
#	227109
#
# Disc length: 3296 seconds
#
# Revision: 2
# Processed by: cddbd v1.5.2PL0 Copyright (c) Steve Scherf et al.
# Submitted via: EasyCDDAExtractor 16.1.0.1
#
DISCID=c40cde0f
DTITLE=Willie Nelson - Country Music
DYEAR=2010
DGENRE=Country
TTITLE0=Man With The Blues
TTITLE1=Seaman's Blues
TTITLE2=Dark As A Dungeon
TTITLE3=Gotta Walk Alone
TTITLE4=Satan Your Kingdom Must Come Down
TTITLE5=My Baby's Gone
TTITLE6=Freight Train Boogie
TTITLE7=Satisfied Mind
TTITLE8=You Done Me Wrong
TTITLE9=Pistol Packin' Mama
TTITLE10=Ocean Of Diamonds
TTITLE11=Drinking Champagne
TTITLE12=I Am A Pilgrim
TTITLE13=House Of Gold
TTITLE14=Nobody's Fault But Mine
EXTD=
EXTT0=
EXTT1=
EXTT2=
EXTT3=
EXTT4=
EXTT5=
EXTT6=
EXTT7=
EXTT8=
EXTT9=
EXTT10=
EXTT11=
EXTT12=
EXTT13=
EXTT14=
PLAYORDER=
